<mxfile host="65bd71144e">
    <diagram id="XZ6jbI1Kr5ahVWXUHstj" name="Page-1">
        <mxGraphModel dx="869" dy="532" grid="0" gridSize="10" guides="1" tooltips="1" connect="1" arrows="1" fold="1" page="1" pageScale="1" pageWidth="850" pageHeight="1400" background="#BEF7D5" math="0" shadow="0">
            <root>
                <mxCell id="0"/>
                <mxCell id="1" parent="0"/>
                <mxCell id="42" value="&lt;b&gt;&lt;font style=&quot;font-size: 30px;&quot;&gt;seeds&lt;/font&gt;&lt;/b&gt;" style="text;html=1;strokeColor=none;fillColor=none;align=center;verticalAlign=middle;whiteSpace=wrap;rounded=0;fontSize=14;fontColor=#33001A;" parent="1" vertex="1">
                    <mxGeometry x="90" y="490" width="90" height="50" as="geometry"/>
                </mxCell>
                <mxCell id="25" style="edgeStyle=none;html=1;entryX=1;entryY=0;entryDx=0;entryDy=0;strokeColor=#0000FF;fontSize=14;" parent="1" source="4" target="5" edge="1">
                    <mxGeometry relative="1" as="geometry"/>
                </mxCell>
                <mxCell id="27" style="edgeStyle=none;html=1;entryX=0;entryY=0;entryDx=0;entryDy=0;strokeColor=#0000FF;fontSize=14;" parent="1" source="4" target="9" edge="1">
                    <mxGeometry relative="1" as="geometry"/>
                </mxCell>
                <mxCell id="28" style="edgeStyle=none;html=1;entryX=0;entryY=0;entryDx=0;entryDy=0;strokeColor=#0000FF;fontSize=14;" parent="1" source="4" target="6" edge="1">
                    <mxGeometry relative="1" as="geometry"/>
                </mxCell>
                <mxCell id="30" style="edgeStyle=none;html=1;entryX=1;entryY=0;entryDx=0;entryDy=0;strokeColor=#0000FF;fontSize=14;" parent="1" source="4" target="8" edge="1">
                    <mxGeometry relative="1" as="geometry"/>
                </mxCell>
                <mxCell id="4" value="main.js" style="rounded=0;whiteSpace=wrap;html=1;" parent="1" vertex="1">
                    <mxGeometry x="230" y="130" width="90" height="30" as="geometry"/>
                </mxCell>
                <mxCell id="5" value="plan.js" style="rounded=0;whiteSpace=wrap;html=1;" parent="1" vertex="1">
                    <mxGeometry x="10" y="180" width="70" height="30" as="geometry"/>
                </mxCell>
                <mxCell id="32" style="edgeStyle=none;html=1;entryX=0;entryY=0;entryDx=0;entryDy=0;strokeColor=#0000FF;fontSize=14;" parent="1" source="6" target="16" edge="1">
                    <mxGeometry relative="1" as="geometry"/>
                </mxCell>
                <mxCell id="33" style="edgeStyle=none;html=1;strokeColor=#0000FF;fontSize=14;" parent="1" source="6" target="19" edge="1">
                    <mxGeometry relative="1" as="geometry"/>
                </mxCell>
                <mxCell id="34" style="edgeStyle=none;html=1;entryX=0;entryY=0.25;entryDx=0;entryDy=0;strokeColor=#0000FF;fontSize=14;" parent="1" source="6" target="21" edge="1">
                    <mxGeometry relative="1" as="geometry"/>
                </mxCell>
                <mxCell id="35" style="edgeStyle=none;html=1;strokeColor=#0000FF;fontSize=14;entryX=0;entryY=0;entryDx=0;entryDy=0;" parent="1" source="6" target="18" edge="1">
                    <mxGeometry relative="1" as="geometry">
                        <mxPoint x="380" y="470" as="targetPoint"/>
                    </mxGeometry>
                </mxCell>
                <mxCell id="36" style="edgeStyle=none;html=1;strokeColor=#0000FF;fontSize=14;entryX=0;entryY=0;entryDx=0;entryDy=0;" parent="1" source="6" target="20" edge="1">
                    <mxGeometry relative="1" as="geometry">
                        <mxPoint x="130" y="740" as="targetPoint"/>
                    </mxGeometry>
                </mxCell>
                <mxCell id="37" style="edgeStyle=none;html=1;entryX=0.143;entryY=0;entryDx=0;entryDy=0;strokeColor=#0000FF;fontSize=14;entryPerimeter=0;" parent="1" source="6" target="22" edge="1">
                    <mxGeometry relative="1" as="geometry">
                        <Array as="points">
                            <mxPoint x="30" y="660"/>
                        </Array>
                    </mxGeometry>
                </mxCell>
                <mxCell id="6" value="tractor.js" style="rounded=0;whiteSpace=wrap;html=1;" parent="1" vertex="1">
                    <mxGeometry x="10" y="370" width="70" height="30" as="geometry"/>
                </mxCell>
                <mxCell id="31" style="edgeStyle=none;html=1;strokeColor=#0000FF;fontSize=14;exitX=1;exitY=0;exitDx=0;exitDy=0;entryX=0;entryY=0.75;entryDx=0;entryDy=0;" parent="1" source="6" target="7" edge="1">
                    <mxGeometry relative="1" as="geometry">
                        <mxPoint x="285" y="376" as="targetPoint"/>
                    </mxGeometry>
                </mxCell>
                <mxCell id="7" value="field.js" style="rounded=0;whiteSpace=wrap;html=1;" parent="1" vertex="1">
                    <mxGeometry x="240" y="300" width="70" height="30" as="geometry"/>
                </mxCell>
                <mxCell id="8" value="harvest.js" style="rounded=0;whiteSpace=wrap;html=1;" parent="1" vertex="1">
                    <mxGeometry x="510" y="280" width="70" height="30" as="geometry"/>
                </mxCell>
                <mxCell id="9" value="catalog.js" style="rounded=0;whiteSpace=wrap;html=1;" parent="1" vertex="1">
                    <mxGeometry x="520" y="140" width="70" height="30" as="geometry"/>
                </mxCell>
                <mxCell id="16" value="asparagus.js" style="rounded=0;whiteSpace=wrap;html=1;" parent="1" vertex="1">
                    <mxGeometry x="387.5" y="440" width="85" height="30" as="geometry"/>
                </mxCell>
                <mxCell id="18" value="soybean.js" style="rounded=0;whiteSpace=wrap;html=1;" parent="1" vertex="1">
                    <mxGeometry x="310" y="710" width="70" height="30" as="geometry"/>
                </mxCell>
                <mxCell id="19" value="corn.js" style="rounded=0;whiteSpace=wrap;html=1;" parent="1" vertex="1">
                    <mxGeometry x="400" y="530" width="70" height="30" as="geometry"/>
                </mxCell>
                <mxCell id="20" value="sunflower.js" style="rounded=0;whiteSpace=wrap;html=1;" parent="1" vertex="1">
                    <mxGeometry x="135" y="730" width="70" height="30" as="geometry"/>
                </mxCell>
                <mxCell id="21" value="potato.js" style="rounded=0;whiteSpace=wrap;html=1;" parent="1" vertex="1">
                    <mxGeometry x="382.5" y="610" width="70" height="30" as="geometry"/>
                </mxCell>
                <mxCell id="22" value="wheat.js" style="rounded=0;whiteSpace=wrap;html=1;" parent="1" vertex="1">
                    <mxGeometry x="30" y="730" width="70" height="30" as="geometry"/>
                </mxCell>
                <mxCell id="46" value="createPlan()" style="endArrow=classic;html=1;strokeColor=#F02E54;entryX=0;entryY=1;entryDx=0;entryDy=0;" parent="1" target="4" edge="1">
                    <mxGeometry x="0.0734" y="3" relative="1" as="geometry">
                        <mxPoint x="80" y="195" as="sourcePoint"/>
                        <mxPoint x="180" y="220" as="targetPoint"/>
                        <Array as="points">
                            <mxPoint x="160" y="190"/>
                        </Array>
                        <mxPoint as="offset"/>
                    </mxGeometry>
                </mxCell>
                <mxCell id="50" value="catalog()" style="endArrow=classic;html=1;strokeColor=#F02E54;entryX=1;entryY=1;entryDx=0;entryDy=0;exitX=0;exitY=0.75;exitDx=0;exitDy=0;" parent="1" source="9" target="4" edge="1">
                    <mxGeometry x="-0.1004" y="1" relative="1" as="geometry">
                        <mxPoint x="425" y="250" as="sourcePoint"/>
                        <mxPoint x="575" y="215" as="targetPoint"/>
                        <Array as="points">
                            <mxPoint x="420" y="170"/>
                        </Array>
                        <mxPoint as="offset"/>
                    </mxGeometry>
                </mxCell>
                <mxCell id="51" value="harvestPlants()" style="endArrow=classic;html=1;strokeColor=#F02E54;entryX=0.75;entryY=1;entryDx=0;entryDy=0;exitX=0.5;exitY=0;exitDx=0;exitDy=0;" parent="1" source="8" target="4" edge="1">
                    <mxGeometry x="0.0497" y="3" relative="1" as="geometry">
                        <mxPoint x="270" y="265" as="sourcePoint"/>
                        <mxPoint x="420" y="230" as="targetPoint"/>
                        <Array as="points">
                            <mxPoint x="400" y="230"/>
                        </Array>
                        <mxPoint as="offset"/>
                    </mxGeometry>
                </mxCell>
                <mxCell id="52" value="plantSeeds()" style="endArrow=classic;html=1;strokeColor=#F02E54;entryX=0.349;entryY=1.075;entryDx=0;entryDy=0;exitX=0.25;exitY=0;exitDx=0;exitDy=0;entryPerimeter=0;" parent="1" source="6" target="4" edge="1">
                    <mxGeometry x="0.0256" relative="1" as="geometry">
                        <mxPoint x="130" y="245" as="sourcePoint"/>
                        <mxPoint x="280" y="210" as="targetPoint"/>
                        <Array as="points">
                            <mxPoint x="210" y="240"/>
                        </Array>
                        <mxPoint as="offset"/>
                    </mxGeometry>
                </mxCell>
                <mxCell id="53" value="usePlants()" style="endArrow=classic;html=1;strokeColor=#F02E54;entryX=1;entryY=0.25;entryDx=0;entryDy=0;exitX=0;exitY=1;exitDx=0;exitDy=0;" parent="1" source="7" target="6" edge="1">
                    <mxGeometry x="-0.0032" y="-2" relative="1" as="geometry">
                        <mxPoint x="290" y="300" as="sourcePoint"/>
                        <mxPoint x="290" y="160" as="targetPoint"/>
                        <Array as="points">
                            <mxPoint x="207" y="346"/>
                        </Array>
                        <mxPoint as="offset"/>
                    </mxGeometry>
                </mxCell>
                <mxCell id="54" value="addPlant()" style="endArrow=classic;html=1;strokeColor=#F02E54;entryX=0.75;entryY=0;entryDx=0;entryDy=0;exitX=0;exitY=0.5;exitDx=0;exitDy=0;" parent="1" source="7" target="6" edge="1">
                    <mxGeometry x="0.0734" y="3" relative="1" as="geometry">
                        <mxPoint x="150" y="265" as="sourcePoint"/>
                        <mxPoint x="300" y="230" as="targetPoint"/>
                        <Array as="points">
                            <mxPoint x="170" y="315"/>
                        </Array>
                        <mxPoint as="offset"/>
                    </mxGeometry>
                </mxCell>
                <mxCell id="55" value="" style="endArrow=classic;html=1;strokeColor=#F02E54;entryX=1;entryY=0.75;entryDx=0;entryDy=0;exitX=0;exitY=0.5;exitDx=0;exitDy=0;" parent="1" source="16" target="6" edge="1">
                    <mxGeometry relative="1" as="geometry">
                        <mxPoint x="250" y="400" as="sourcePoint"/>
                        <mxPoint x="350" y="400" as="targetPoint"/>
                        <Array as="points">
                            <mxPoint x="290" y="450"/>
                        </Array>
                    </mxGeometry>
                </mxCell>
                <mxCell id="56" value="createAsparagus()" style="edgeLabel;resizable=0;html=1;align=center;verticalAlign=middle;" parent="55" connectable="0" vertex="1">
                    <mxGeometry relative="1" as="geometry">
                        <mxPoint x="78" y="16" as="offset"/>
                    </mxGeometry>
                </mxCell>
                <mxCell id="57" value="" style="endArrow=classic;html=1;strokeColor=#F02E54;entryX=1;entryY=1;entryDx=0;entryDy=0;exitX=0;exitY=0.25;exitDx=0;exitDy=0;" parent="1" source="19" target="6" edge="1">
                    <mxGeometry relative="1" as="geometry">
                        <mxPoint x="397.5" y="465" as="sourcePoint"/>
                        <mxPoint x="90" y="402.5" as="targetPoint"/>
                        <Array as="points">
                            <mxPoint x="330" y="520"/>
                            <mxPoint x="290" y="520"/>
                        </Array>
                    </mxGeometry>
                </mxCell>
                <mxCell id="58" value="createCorn()" style="edgeLabel;resizable=0;html=1;align=center;verticalAlign=middle;" parent="57" connectable="0" vertex="1">
                    <mxGeometry relative="1" as="geometry">
                        <mxPoint x="76" y="32" as="offset"/>
                    </mxGeometry>
                </mxCell>
                <mxCell id="59" value="" style="endArrow=classic;html=1;strokeColor=#F02E54;entryX=0.897;entryY=1.058;entryDx=0;entryDy=0;exitX=0;exitY=0.75;exitDx=0;exitDy=0;entryPerimeter=0;" parent="1" edge="1">
                    <mxGeometry relative="1" as="geometry">
                        <mxPoint x="382.5" y="630.76" as="sourcePoint"/>
                        <mxPoint x="72.78999999999996" y="400" as="targetPoint"/>
                        <Array as="points">
                            <mxPoint x="312.5" y="620.76"/>
                            <mxPoint x="290" y="578.26"/>
                        </Array>
                    </mxGeometry>
                </mxCell>
                <mxCell id="60" value="createPotato()" style="edgeLabel;resizable=0;html=1;align=center;verticalAlign=middle;" parent="59" connectable="0" vertex="1">
                    <mxGeometry relative="1" as="geometry">
                        <mxPoint x="93" y="93" as="offset"/>
                    </mxGeometry>
                </mxCell>
                <mxCell id="62" value="" style="endArrow=classic;html=1;strokeColor=#F02E54;entryX=0.66;entryY=1.02;entryDx=0;entryDy=0;exitX=0;exitY=0.25;exitDx=0;exitDy=0;entryPerimeter=0;" parent="1" edge="1">
                    <mxGeometry relative="1" as="geometry">
                        <mxPoint x="310" y="716.9" as="sourcePoint"/>
                        <mxPoint x="56.200000000000045" y="400" as="targetPoint"/>
                        <Array as="points">
                            <mxPoint x="300" y="699.4"/>
                            <mxPoint x="260" y="699.4"/>
                        </Array>
                    </mxGeometry>
                </mxCell>
                <mxCell id="63" value="createSoybean()" style="edgeLabel;resizable=0;html=1;align=center;verticalAlign=middle;" parent="62" connectable="0" vertex="1">
                    <mxGeometry relative="1" as="geometry">
                        <mxPoint x="75" y="125" as="offset"/>
                    </mxGeometry>
                </mxCell>
                <mxCell id="69" value="" style="endArrow=classic;html=1;strokeColor=#F02E54;exitX=0.75;exitY=0;exitDx=0;exitDy=0;" parent="1" source="20" edge="1">
                    <mxGeometry relative="1" as="geometry">
                        <mxPoint x="171.8" y="700" as="sourcePoint"/>
                        <mxPoint x="50" y="400" as="targetPoint"/>
                        <Array as="points">
                            <mxPoint x="151.8" y="670"/>
                        </Array>
                    </mxGeometry>
                </mxCell>
                <mxCell id="70" value="createSunflower()" style="edgeLabel;resizable=0;html=1;align=center;verticalAlign=middle;" parent="69" connectable="0" vertex="1">
                    <mxGeometry relative="1" as="geometry">
                        <mxPoint x="58" y="117" as="offset"/>
                    </mxGeometry>
                </mxCell>
                <mxCell id="71" value="" style="endArrow=classic;html=1;strokeColor=#F02E54;entryX=0.25;entryY=1;entryDx=0;entryDy=0;exitX=0.5;exitY=0;exitDx=0;exitDy=0;" parent="1" source="22" target="6" edge="1">
                    <mxGeometry relative="1" as="geometry">
                        <mxPoint x="197.5" y="740" as="sourcePoint"/>
                        <mxPoint x="60" y="380" as="targetPoint"/>
                        <Array as="points">
                            <mxPoint x="80" y="670"/>
                        </Array>
                    </mxGeometry>
                </mxCell>
                <mxCell id="72" value="createWheat()" style="edgeLabel;resizable=0;html=1;align=center;verticalAlign=middle;" parent="71" connectable="0" vertex="1">
                    <mxGeometry relative="1" as="geometry">
                        <mxPoint x="10" y="94" as="offset"/>
                    </mxGeometry>
                </mxCell>
            </root>
        </mxGraphModel>
    </diagram>
</mxfile>